<svg width="32" height="32" viewBox="0 0 32 32" fill="none" xmlns="http://www.w3.org/2000/svg">
<g clip-path="url(#clip0_2699_893)">
<g clip-path="url(#clip1_2699_893)">
<path d="M1.71387 19.9994C1.71387 20.315 1.96973 20.5709 2.2853 20.5709H29.7139C30.0294 20.5709 30.2853 20.315 30.2853 19.9994V2.28516H1.71387V19.9994Z" fill="#E74040"/>
<path d="M31.4286 0H0.571429C0.255859 0 0 0.255859 0 0.571429C0 0.886998 0.255859 1.14286 0.571429 1.14286H31.4286C31.7441 1.14286 32 0.886998 32 0.571429C32 0.255859 31.7441 0 31.4286 0Z" fill="#E74040"/>
<path d="M20.571 29.7148H16.571V22.8577H17.1424C17.458 22.8577 17.7139 22.6018 17.7139 22.2863V21.7148H14.2853V22.2863C14.2853 22.6018 14.5412 22.8577 14.8567 22.8577H15.4282V29.7148H11.4282C10.4814 29.7148 9.71387 30.4824 9.71387 31.4291V32.0006H22.2853V31.4291C22.2853 30.4824 21.5177 29.7148 20.571 29.7148Z" fill="#E74040"/>
</g>
</g>
<defs>
<clipPath id="clip0_2699_893">
<rect width="32" height="32" fill="white"/>
</clipPath>
<clipPath id="clip1_2699_893">
<rect width="32" height="32" fill="white"/>
</clipPath>
</defs>
</svg>
